<svg width="28" height="28" viewBox="0 0 28 28" fill="none" xmlns="http://www.w3.org/2000/svg">
<path d="M19.3846 9.69231V16.1538C19.3846 16.4395 19.2712 16.7134 19.0692 16.9153C18.8672 17.1173 18.5933 17.2308 18.3077 17.2308C18.0221 17.2308 17.7482 17.1173 17.5462 16.9153C17.3442 16.7134 17.2308 16.4395 17.2308 16.1538V12.2917L10.4542 19.0696C10.3542 19.1697 10.2354 19.249 10.1047 19.3032C9.97393 19.3573 9.83381 19.3852 9.69231 19.3852C9.55081 19.3852 9.41069 19.3573 9.27996 19.3032C9.14923 19.249 9.03045 19.1697 8.93039 19.0696C8.83033 18.9696 8.75096 18.8508 8.69681 18.72C8.64266 18.5893 8.61479 18.4492 8.61479 18.3077C8.61479 18.1662 8.64266 18.0261 8.69681 17.8953C8.75096 17.7646 8.83033 17.6458 8.93039 17.5458L15.7083 10.7692H11.8462C11.5605 10.7692 11.2866 10.6558 11.0847 10.4538C10.8827 10.2518 10.7692 9.97792 10.7692 9.69231C10.7692 9.40669 10.8827 9.13277 11.0847 8.93081C11.2866 8.72884 11.5605 8.61538 11.8462 8.61538H18.3077C18.5933 8.61538 18.8672 8.72884 19.0692 8.93081C19.2712 9.13277 19.3846 9.40669 19.3846 9.69231ZM28 14C28 16.7689 27.1789 19.4757 25.6406 21.778C24.1022 24.0803 21.9157 25.8747 19.3576 26.9343C16.7994 27.9939 13.9845 28.2712 11.2687 27.731C8.55301 27.1908 6.05845 25.8574 4.10051 23.8995C2.14258 21.9416 0.809205 19.447 0.269012 16.7313C-0.271181 14.0155 0.00606596 11.2006 1.06569 8.64243C2.12532 6.08427 3.91973 3.89776 6.22202 2.35943C8.52431 0.821086 11.2311 0 14 0C17.7118 0.00391976 21.2705 1.48017 23.8952 4.10483C26.5198 6.72949 27.9961 10.2882 28 14ZM25.8462 14C25.8462 11.6571 25.1514 9.36672 23.8497 7.41863C22.548 5.47054 20.6979 3.95219 18.5333 3.05558C16.3687 2.15897 13.9869 1.92438 11.6889 2.38147C9.39101 2.83855 7.28022 3.96679 5.62351 5.6235C3.9668 7.28022 2.83856 9.391 2.38147 11.6889C1.92439 13.9869 2.15898 16.3687 3.05559 18.5333C3.95219 20.6979 5.47054 22.548 7.41863 23.8497C9.36672 25.1514 11.6571 25.8461 14 25.8461C17.1407 25.8426 20.1517 24.5934 22.3726 22.3726C24.5934 20.1517 25.8426 17.1407 25.8462 14Z" fill="white"/>
</svg>
