<svg width="164" height="34" viewBox="0 0 164 34" fill="none" xmlns="http://www.w3.org/2000/svg">
<g clip-path="url(#clip0_18_193)">
<rect width="164" height="34" rx="5" fill="#FFCA00"/>
<path d="M22.059 15.78H28.399V24H24.999V23.64C24.259 23.9 23.459 24.02 22.679 24.02C20.779 24.02 18.899 23.3 17.459 21.86C14.619 19.02 14.599 14.3 17.459 11.44C20.339 8.56 25.019 8.56 27.899 11.44L25.499 13.84C23.959 12.3 21.399 12.3 19.859 13.84C18.299 15.4 18.299 17.92 19.859 19.48C21.239 20.86 23.459 21.02 24.999 19.9V19.16H22.059V15.78ZM39.1016 9.32V12.7H33.0616V14.92H37.9616V18.3H33.0616V20.62H39.1016V24H29.6816V9.34L39.1016 9.32ZM40.3274 9.26H49.3274V12.66H46.5074V24H43.1274V12.66H40.3274V9.26Z" fill="#1C1C1C"/>
<path d="M58.38 9.3V24H55V9.3H58.38ZM68.8311 17.9V9.32H72.2111V24H68.5511L63.7511 15.44V24H60.3711V9.36H64.0511L68.8311 17.9ZM78.0872 9.26H87.0872V12.66H84.2672V24H80.8872V12.66H78.0872V9.26ZM94.6408 9.3C98.7008 9.3 102.001 12.58 102.001 16.64C102.001 20.7 98.7008 23.98 94.6408 23.98C90.5808 23.98 87.3008 20.7 87.3008 16.64C87.3008 12.58 90.5808 9.3 94.6408 9.3ZM94.6408 20.6C96.8208 20.6 98.6008 18.82 98.6008 16.64C98.6008 14.46 96.8208 12.68 94.6408 12.68C92.4608 12.68 90.6808 14.46 90.6808 16.64C90.6808 18.82 92.4608 20.6 94.6408 20.6ZM108.648 24H108.588C107.088 24 105.728 23.44 104.688 22.42C103.628 21.36 103.028 20 103.008 18.48V9.3H106.388V18.46C106.388 19.04 106.608 19.56 107.048 20C107.488 20.42 108.008 20.62 108.608 20.62C109.828 20.62 110.768 19.6 110.768 18.4V9.3H114.148V18.38C114.208 21.44 111.688 23.94 108.648 24ZM122.272 23.98C120.372 23.98 118.512 23.28 117.072 21.84C115.692 20.42 114.932 18.62 114.932 16.64C114.932 14.64 115.692 12.82 117.072 11.44C119.952 8.56 124.592 8.56 127.472 11.44L125.092 13.82C123.532 12.26 121.012 12.28 119.472 13.82C118.732 14.6 118.312 15.58 118.312 16.64C118.312 17.7 118.732 18.66 119.472 19.44C121.012 20.98 123.532 21 125.092 19.44L127.472 21.84C126.032 23.28 124.192 23.98 122.272 23.98ZM135.901 15.08V9.32H139.281V24H135.901V18.46H131.661V24H128.281V9.32H131.661V15.08H135.901ZM120.843 87.08V81.32H124.223V96H120.843V90.46H116.603V96H113.223V81.32H116.603V87.08H120.843ZM135.338 81.32V84.7H129.298V86.92H134.198V90.3H129.298V92.62H135.338V96H125.918V81.34L135.338 81.32ZM143.07 96L140.71 92.2C140.37 92.26 140.03 92.28 139.65 92.3V96H136.27V81.36H139.65C143.01 81.42 145.71 83.86 145.71 86.82C145.71 88.4 145.01 89.78 143.81 90.76L147.05 96H143.07ZM139.65 84.76V88.9C141.11 88.84 142.33 87.94 142.33 86.82C142.33 85.72 141.11 84.82 139.65 84.76Z" fill="#1C1C1C"/>
</g>
<defs>
<clipPath id="clip0_18_193">
<rect width="164" height="34" rx="5" fill="white"/>
</clipPath>
</defs>
</svg>
