<svg width="57" height="50" viewBox="0 0 57 50" fill="none" xmlns="http://www.w3.org/2000/svg">
<path d="M9.83547 18.1563C9.83547 15.0833 11.3297 11.8129 12.8816 9.38806C10.8987 7.07642 8.25524 4.84914 5.18022 4.84914V23.7667H1.15674V1.21191H5.17968C9.26031 1.21191 12.6798 3.69279 15.1802 6.37119C17.6517 3.6362 21.0135 1.21191 24.9505 1.21191H28.9734V23.7667H24.9505V4.9052C22.4506 4.9052 19.8926 6.48384 17.5075 9.35977C19.1454 11.7563 20.7833 15.196 20.7833 18.3533C20.7833 21.793 18.6856 23.8793 15.381 23.8793C12.0763 23.8793 9.83494 21.7086 9.83494 18.1563H9.83547ZM15.3815 20.2426C16.7321 20.2426 17.0771 19.6506 17.0771 18.3538C17.0771 16.7752 16.3876 14.7171 15.2378 12.6868C14.1746 14.6322 13.5423 16.6059 13.5423 18.1563C13.5423 19.5657 13.9444 20.2426 15.3815 20.2426Z" fill="white"/>
<path d="M38.9557 22.8516C37.2922 23.4835 35.4941 23.1676 34.206 21.9038C33.1058 20.8245 32.6765 19.1657 33.1325 17.6913C33.1592 17.5331 33.2132 17.4016 33.2666 17.2701L32.8639 17.0594C31.4685 16.3223 30.583 14.8741 30.583 13.3211C30.583 11.7681 31.4685 10.2932 32.8639 9.55604C32.998 9.47692 33.1325 9.42453 33.2666 9.37161C33.2126 9.21338 33.1592 9.08187 33.1325 8.95036C32.6765 7.47598 33.0791 5.81717 34.206 4.71165C35.5747 3.4217 37.4262 3.21107 38.929 3.76384L39.0903 3.47409C39.7878 2.18414 41.1565 1.23633 42.874 1.23633C44.4574 1.23633 45.799 1.99971 46.6043 3.34258C46.7116 3.50029 46.7923 3.65852 46.8729 3.81623C48.4564 3.21055 50.3346 3.36878 51.7567 4.71113C52.8836 5.81665 53.2862 7.47546 52.8302 8.94984C52.8035 9.08135 52.7495 9.21286 52.6961 9.37109C52.8302 9.42401 52.9647 9.4764 53.0988 9.55552C54.4942 10.2927 55.3797 11.7671 55.3797 13.3206C55.3797 14.8741 54.4942 16.3217 53.0988 17.0589L52.6961 17.2695C52.7501 17.4011 52.8035 17.5331 52.8302 17.6908C53.2862 19.1652 52.8569 20.824 51.7567 21.9033C50.4152 23.2195 48.5904 23.4568 47.007 22.8511C46.953 22.9826 46.8729 23.1141 46.7923 23.2462C45.9875 24.6676 44.6454 25.4577 42.9819 25.4577C40.9963 25.4577 39.4935 24.1678 38.9568 22.8511L38.9557 22.8516ZM37.5603 15.5065C38.1237 16.8493 35.6281 18.4814 36.6748 19.5084C36.8628 19.6928 37.0503 19.7452 37.265 19.7452C38.1504 19.7452 39.3045 18.5343 40.2972 18.5343C40.4585 18.5343 40.5926 18.5605 40.7266 18.6135C42.0954 19.1662 41.5047 22.0626 42.9808 22.0626C44.4569 22.0626 43.8663 19.1667 45.235 18.6135C45.3691 18.5611 45.5036 18.5343 45.6644 18.5343C46.6572 18.5343 47.8112 19.7452 48.6967 19.7452C48.9114 19.7452 49.0993 19.6928 49.2868 19.5084C50.3335 18.4814 47.8379 16.8493 48.4014 15.5065C48.9648 14.1898 51.8897 14.7431 51.8897 13.3211C51.8897 11.8991 48.9648 12.4524 48.4014 11.1095C47.8379 9.79339 50.3335 8.13458 49.2868 7.13385C49.0988 6.94942 48.9114 6.8703 48.6967 6.8703C47.8112 6.8703 46.6572 8.08114 45.6644 8.08114C45.5031 8.08114 45.3691 8.05494 45.235 8.00202C43.8663 7.44926 44.2155 4.63201 42.8735 4.63201C41.4513 4.63201 42.0954 7.44926 40.7266 8.00202C40.5926 8.05494 40.458 8.08114 40.2972 8.08114C39.3045 8.08114 38.1504 6.8703 37.265 6.8703C37.0503 6.8703 36.8623 6.94942 36.6748 7.13385C35.6281 8.13406 38.1242 9.79286 37.5603 11.1095C36.9969 12.4524 34.0719 11.8729 34.0719 13.3211C34.0719 14.7693 36.9969 14.1898 37.5603 15.5065Z" fill="white"/>
<path d="M24.2343 36.2969V48.4357H20.4827L20.1633 45.6944C18.8859 47.6524 16.6114 48.7878 13.8173 48.7878C9.62663 48.7878 6.83252 46.321 6.83252 42.6398C6.83252 40.4471 7.79059 38.8024 9.54653 37.9411C10.9035 37.2751 12.7396 36.9623 15.5331 36.9623H20.1232V36.2964C20.1232 33.7904 18.5665 32.3024 15.9721 32.3024C13.8167 32.3024 11.9011 33.3204 10.4245 35.3177L7.43118 32.8509C9.7062 30.1097 12.4998 28.7783 16.0122 28.7783C21.1208 28.7783 24.2343 31.5977 24.2343 36.2964V36.2969ZM20.1232 40.1343V40.0562H16.0122C13.7372 40.0562 12.5799 40.2522 11.8215 40.8395C11.2229 41.2309 10.9436 41.8968 10.9436 42.7189C10.9436 44.3636 12.3406 45.3816 14.5756 45.3816C17.7687 45.3816 20.1232 43.1889 20.1232 40.1343Z" fill="white"/>
<path d="M36.7043 42.8252C36.7043 39.7523 38.1986 36.4818 39.7505 34.057C37.7676 31.7454 35.1241 29.5181 32.0491 29.5181V48.4356H28.0261V25.8809H32.0491C36.1297 25.8809 39.5492 28.3617 42.0496 31.0401C44.5211 28.3051 47.8829 25.8809 51.8199 25.8809H55.8428V48.4356H51.8199V29.5741C49.32 29.5741 46.762 31.1528 44.3769 34.0287C46.0148 36.4252 47.6527 39.8649 47.6527 43.0222C47.6527 46.4619 45.555 48.5483 42.2504 48.5483C38.9457 48.5483 36.7043 46.3776 36.7043 42.8252ZM42.2504 44.9116C43.601 44.9116 43.9459 44.3195 43.9459 43.0227C43.9459 41.4441 43.2565 39.3855 42.1067 37.3558C41.0434 39.3012 40.4111 41.2749 40.4111 42.8252C40.4111 44.2346 40.8132 44.9116 42.2504 44.9116Z" fill="white"/>
</svg>
