<svg width="32" height="32" viewBox="0 0 32 32" fill="none" xmlns="http://www.w3.org/2000/svg">
<path d="M6.07625 10.3826C6.1519 10.5653 6.28004 10.7215 6.44447 10.8314C6.60889 10.9413 6.80222 11 7 11.0001H12V16.0001C12.0036 19.4468 13.3744 22.7512 15.8116 25.1884C18.2488 27.6256 21.5533 28.9964 25 29.0001C25.2652 29.0001 25.5196 28.8947 25.7071 28.7072C25.8946 28.5196 26 28.2653 26 28.0001C26 27.7348 25.8946 27.4805 25.7071 27.2929C25.5196 27.1054 25.2652 27.0001 25 27.0001C22.0836 26.9967 19.2877 25.8368 17.2255 23.7746C15.1633 21.7124 14.0033 18.9164 14 16.0001V11.0001H19C19.1979 11.0002 19.3914 10.9416 19.556 10.8318C19.7206 10.7219 19.8489 10.5657 19.9246 10.3828C20.0004 10.2 20.0202 9.99883 19.9815 9.80475C19.9429 9.61066 19.8475 9.43241 19.7075 9.29255L13.7075 3.29255C13.6146 3.19958 13.5043 3.12582 13.3829 3.07549C13.2615 3.02517 13.1314 2.99927 13 2.99927C12.8686 2.99927 12.7385 3.02517 12.6171 3.07549C12.4957 3.12582 12.3854 3.19958 12.2925 3.29255L6.2925 9.29255C6.15269 9.43248 6.05752 9.61073 6.01903 9.80475C5.98054 9.99877 6.00045 10.1999 6.07625 10.3826Z" fill="#1C1C1C"/>
</svg>
